<?xml version="1.0" encoding="UTF-8"?>
<svg id="Layer_1" data-name="Layer 1" xmlns="http://www.w3.org/2000/svg" viewBox="0 0 1427.98 419">
  <defs>
    <style>
      .cls-1 {
        fill: #faf5ec;
      }
    </style>
  </defs>
  <g>
    <path class="cls-1" d="M2.01,97.46c9.09,13.48,23.22,19.82,37.53,26.61,0,3.2,0,6.15,0,9.1,0,52.17-.07,104.34,.09,156.51,.02,7.66,.51,15.44,1.89,22.96,5.03,27.43,20.5,46.08,47.14,55.49,36.56,12.92,74.16,15.7,112.43,12.42,23.59-2.03,46.72-6.37,68.95-14.9,28.81-11.05,42.78-32.46,44.49-62.68,.1-1.73,.27-3.46,.44-5.19,.02-.22,.26-.41,.86-1.32h36.44c.55,16.97-.95,33.37-9.63,48.6-19.16,33.63-47.9,54.82-85.11,63.91-55.53,13.56-111.25,13.59-166.58-1.4-23.38-6.33-44.23-17.71-60.84-35.86C10.11,349.87,3.31,322.89,.85,294.47c-1.01-11.6-.78-23.33-.8-35C-.03,208.3,.01,157.12,0,105.95c0-2.63,0-5.26,0-7.88,.67-.2,1.33-.4,2-.6Z"/>
    <path class="cls-1" d="M325.38,4.7c-6.62,9.23-12.2,17.67-18.61,25.43-1.51,1.84-5.8,1.94-8.8,1.91-54.65-.47-109.3-1.36-163.95-1.5-20.88-.05-41.73,1.89-61.9,8.05-5.45,1.66-10.9,3.54-16.04,5.96-8.41,3.96-12.74,10.62-12.21,20.27,.5,9.06,5.84,13.98,13.72,16.61,20.6,6.89,41.59,11.47,63.52,11.37,57.66-.26,115.31-.23,172.97-.31,3.17,0,6.34,0,10.08,0v30.66c-1.79,.33-3.41,.89-5.04,.88-65.36-.18-130.72-.01-196.07-.92-16.52-.23-33.13-3.18-49.44-6.24-14.78-2.77-28.72-8.6-39.11-20.17C-3.99,76.13-1.71,45.72,19.36,27.57c10.44-9,22.84-13.83,36.03-17.04C88.95,2.39,123.18-.34,157.49,.03c54.4,.6,108.78,2.6,163.17,4.03,.98,.03,1.95,.26,4.71,.64Z"/>
    <path class="cls-1" d="M315.46,92.49c2.88,0,5.31,0,7.75,0,36,0,72.02-.41,108.01,.26,12,.23,24.45,1.72,35.82,5.34,23.63,7.53,38,24.49,42.88,48.99,3.52,17.67,2.97,35.1-4.51,51.82-11.85,26.51-32.93,39.95-61.42,40.96-27.03,.96-54.12,.5-81.18,.66-2.94,.02-5.88,0-9.7,0v44.24h-37.64V92.49Zm37.62,118.2c2.19,.23,3.62,.52,5.06,.52,23.07,.02,46.15,.26,69.22-.16,6.85-.12,13.87-1.44,20.46-3.38,18.09-5.33,26.44-16.31,27.75-35.18,2.22-32.01-12.49-48.16-44.28-48.36-23.57-.15-47.14-.07-70.71-.06-2.4,0-4.8,.3-7.5,.48v86.14Z"/>
  </g>
  <g>
    <path class="cls-1" d="M594.02,72.62h-21.83v-12.68h59.03v12.68h-21.72v58.93h-15.49v-58.93Z"/>
    <path class="cls-1" d="M640.8,59.94h15.49v27.85h28.89v-27.85h15.49v71.61h-15.49v-30.97h-28.89v30.97h-15.49V59.94Z"/>
    <path class="cls-1" d="M767.09,100.68h-34.3v18.19h37.83l-1.87,12.68h-51.03V59.94h50.82v12.68h-35.75v15.28h34.3v12.78Z"/>
    <path class="cls-1" d="M867.91,109.41c-2.81,13.41-12.89,23.18-30.87,23.18-22.76,0-33.47-16.11-33.47-36.48s11.12-37.21,34.19-37.21c19.12,0,28.37,11.12,30.14,23.18h-15.49c-1.56-5.61-5.4-11.12-15.17-11.12-12.78,0-17.67,11.54-17.67,24.63,0,12.06,4.26,24.84,18.08,24.84,10.19,0,13.3-6.76,14.66-11.02h15.59Z"/>
    <path class="cls-1" d="M947.12,95.49c0,19.96-11.95,37.1-35.23,37.1s-34.3-16.32-34.3-36.9,12.99-36.79,35.23-36.79c20.99,0,34.3,14.65,34.3,36.58Zm-53.52-.1c0,14.03,6.13,24.63,18.81,24.63,13.82,0,18.71-11.54,18.71-24.32,0-13.62-5.61-24.22-18.92-24.22s-18.6,9.98-18.6,23.9Z"/>
    <path class="cls-1" d="M975.2,59.94v42.61c0,13.82,7.07,17.88,14.86,17.88,8.83,0,14.34-4.78,14.34-17.88V59.94h15.59v41.89c0,24.53-14.34,30.77-30.14,30.77s-30.14-6.55-30.14-30.45V59.94h15.49Z"/>
    <path class="cls-1" d="M1036.32,131.55V59.94h19.23c8.94,16.01,25.46,45.11,28.79,52.9h.21c-.83-7.48-.83-19.96-.83-31.7v-21.2h14.03v71.61h-18.19c-7.69-14.03-25.98-47.29-29.62-55.6h-.21c.52,6.24,.73,21,.73,33.78v21.83h-14.14Z"/>
    <path class="cls-1" d="M1175.6,109.41c-2.81,13.41-12.89,23.18-30.87,23.18-22.76,0-33.47-16.11-33.47-36.48s11.12-37.21,34.19-37.21c19.12,0,28.37,11.12,30.14,23.18h-15.49c-1.56-5.61-5.4-11.12-15.17-11.12-12.78,0-17.67,11.54-17.67,24.63,0,12.06,4.26,24.84,18.08,24.84,10.19,0,13.3-6.76,14.65-11.02h15.59Z"/>
    <path class="cls-1" d="M1203.05,59.94v71.61h-15.49V59.94h15.49Z"/>
    <path class="cls-1" d="M1220.1,59.94h15.49v58.93h35.75l-1.77,12.68h-49.47V59.94Z"/>
    <path class="cls-1" d="M579.68,184.68h49.99v12.68h-34.82v17.56h32.64v12.68h-32.64v28.68h-15.17v-71.61Z"/>
    <path class="cls-1" d="M708.14,220.22c0,19.96-11.95,37.1-35.23,37.1s-34.3-16.32-34.3-36.9,12.99-36.79,35.23-36.79c20.99,0,34.3,14.65,34.3,36.58Zm-53.52-.1c0,14.03,6.13,24.63,18.81,24.63,13.82,0,18.71-11.54,18.71-24.32,0-13.62-5.61-24.22-18.92-24.22s-18.6,9.98-18.6,23.9Z"/>
    <path class="cls-1" d="M736.84,227.6v28.68h-15.17v-71.61h31.49c15.59,0,24.01,8.52,24.01,19.64,0,9.56-5.2,14.76-10.4,16.94,3.53,1.35,8.94,4.99,8.94,17.88v3.53c0,4.78,0,10.29,1.04,13.62h-14.76c-1.25-3.12-1.45-8.52-1.45-16.11v-1.04c0-7.79-1.98-11.54-13.51-11.54h-10.19Zm0-12.37h12.99c8.42,0,11.74-3.22,11.74-9.15s-3.85-9.14-11.43-9.14h-13.3v18.29Z"/>
    <path class="cls-1" d="M830.19,184.68v42.61c0,13.82,7.07,17.88,14.86,17.88,8.83,0,14.34-4.78,14.34-17.88v-42.61h15.59v41.89c0,24.53-14.34,30.77-30.14,30.77s-30.14-6.55-30.14-30.45v-42.2h15.49Z"/>
    <path class="cls-1" d="M891.31,256.29v-71.61h19.23c8.94,16.01,25.46,45.11,28.79,52.9h.21c-.83-7.48-.83-19.96-.83-31.7v-21.2h14.03v71.61h-18.19c-7.69-14.03-25.98-47.29-29.62-55.6h-.21c.52,6.24,.73,21,.73,33.78v21.83h-14.14Z"/>
    <path class="cls-1" d="M985.28,184.68v71.61h-15.49v-71.61h15.49Z"/>
    <path class="cls-1" d="M1019.57,256.29l-25.25-71.61h16.63l10.6,33.05c3.33,9.98,5.72,18.5,7.38,25.88h.21c1.46-6.75,4.26-15.48,7.69-25.67l11.22-33.26h15.8l-25.98,71.61h-18.29Z"/>
    <path class="cls-1" d="M1121.75,225.42h-34.3v18.19h37.83l-1.87,12.68h-51.03v-71.61h50.82v12.68h-35.75v15.28h34.3v12.78Z"/>
    <path class="cls-1" d="M1151.49,227.6v28.68h-15.17v-71.61h31.49c15.59,0,24.01,8.52,24.01,19.64,0,9.56-5.2,14.76-10.39,16.94,3.53,1.35,8.94,4.99,8.94,17.88v3.53c0,4.78,0,10.29,1.04,13.62h-14.76c-1.25-3.12-1.46-8.52-1.46-16.11v-1.04c0-7.79-1.97-11.54-13.51-11.54h-10.19Zm0-12.37h12.99c8.42,0,11.74-3.22,11.74-9.15s-3.85-9.14-11.43-9.14h-13.3v18.29Z"/>
    <path class="cls-1" d="M1216.77,235.29c1.66,7.17,6.75,10.4,15.07,10.4s11.85-3.33,11.85-8.52c0-5.93-3.43-8.42-15.69-11.23-19.54-4.57-24.32-11.75-24.32-21.41,0-12.47,9.35-20.89,26.29-20.89,19.02,0,26.61,10.19,27.65,20.68h-15.59c-.83-4.47-3.22-9.25-12.47-9.25-6.34,0-10.08,2.6-10.08,7.69s3.01,7.07,14.65,9.67c20.79,4.99,25.36,12.68,25.36,22.86,0,12.99-9.87,22.04-28.79,22.04s-27.85-8.94-29.52-22.04h15.59Z"/>
    <path class="cls-1" d="M1286.41,184.68v71.61h-15.49v-71.61h15.49Z"/>
    <path class="cls-1" d="M1318.84,197.36h-21.83v-12.68h59.03v12.68h-21.72v58.93h-15.49v-58.93Z"/>
    <path class="cls-1" d="M1386.93,256.29v-25.36c0-.73-.1-1.46-.63-2.29l-24.74-43.96h17.56c5.51,10.81,12.68,25.15,16.32,32.95,3.12-7.48,10.91-22.66,16.32-32.95h16.21l-25.05,43.76c-.21,.52-.52,.83-.52,2.29v25.57h-15.48Z"/>
    <path class="cls-1" d="M579.68,309.42h29.62c15.28,0,25.57,8.52,25.57,22.14,0,15.59-11.75,22.76-25.88,22.76h-13.82v26.71h-15.49v-71.61Zm15.49,32.53h11.85c7.17,0,12.26-2.81,12.26-10.08s-5.4-10.19-11.95-10.19h-12.16v20.27Z"/>
    <path class="cls-1" d="M661.69,352.34v28.68h-15.17v-71.61h31.49c15.59,0,24.01,8.52,24.01,19.64,0,9.56-5.2,14.76-10.4,16.94,3.53,1.35,8.94,4.99,8.94,17.88v3.53c0,4.78,0,10.29,1.04,13.62h-14.76c-1.25-3.12-1.45-8.52-1.45-16.11v-1.04c0-7.79-1.98-11.54-13.51-11.54h-10.19Zm0-12.37h12.99c8.42,0,11.74-3.22,11.74-9.15s-3.85-9.14-11.43-9.14h-13.3v18.29Z"/>
    <path class="cls-1" d="M781.74,344.96c0,19.96-11.95,37.1-35.23,37.1s-34.3-16.32-34.3-36.9,12.99-36.79,35.23-36.79c20.99,0,34.3,14.65,34.3,36.58Zm-53.52-.1c0,14.03,6.13,24.63,18.81,24.63,13.82,0,18.71-11.54,18.71-24.32,0-13.62-5.61-24.22-18.92-24.22s-18.6,9.98-18.6,23.9Z"/>
    <path class="cls-1" d="M857.62,381.03h-11.33c-.62-2.18-1.04-4.68-1.25-7.07-3.95,5.4-10.92,8.31-20.89,8.31-20.79,0-32.43-15.8-32.43-36.17,0-21.51,12.58-37.73,35.13-37.73,18.4,0,29.31,10.39,30.97,22.55h-15.49c-1.46-4.78-5.2-10.5-15.69-10.5-14.76,0-18.91,12.37-18.91,24.94s4.78,24.53,19.02,24.53c13.2,0,15.69-9.25,15.69-15.59v-.73h-15.69v-12.68h30.87v40.12Z"/>
    <path class="cls-1" d="M888.5,352.34v28.68h-15.17v-71.61h31.49c15.59,0,24.01,8.52,24.01,19.64,0,9.56-5.2,14.76-10.4,16.94,3.53,1.35,8.94,4.99,8.94,17.88v3.53c0,4.78,0,10.29,1.04,13.62h-14.76c-1.25-3.12-1.45-8.52-1.45-16.11v-1.04c0-7.79-1.98-11.54-13.51-11.54h-10.19Zm0-12.37h12.99c8.42,0,11.74-3.22,11.74-9.15s-3.85-9.14-11.43-9.14h-13.3v18.29Z"/>
    <path class="cls-1" d="M957.32,364.5l-5.51,16.52h-15.28l24.32-71.61h19.43l25.46,71.61h-16.32l-5.92-16.52h-26.19Zm22.86-12.68c-5.09-15.17-8.31-24.84-10.08-31.28h-.1c-1.77,7.07-5.3,18.29-9.35,31.28h19.54Z"/>
    <path class="cls-1" d="M1075.08,354.11c0-12.16,.21-25.88,.52-33.99h-.52c-3.33,14.66-10.5,38.45-17.36,60.91h-13.2c-5.3-19.64-12.68-46.77-15.8-61.11h-.52c.62,8.42,.94,23.18,.94,35.44v25.67h-14.14v-71.61h23.07c5.61,18.71,11.85,42.2,14.03,52.8h.1c1.77-9.35,9.56-34.51,15.59-52.8h22.24v71.61h-14.97v-26.92Z"/>
    <path class="cls-1" d="M1116.57,360.03c1.66,7.17,6.75,10.4,15.07,10.4s11.85-3.33,11.85-8.52c0-5.92-3.43-8.42-15.69-11.22-19.54-4.57-24.32-11.75-24.32-21.41,0-12.47,9.35-20.89,26.29-20.89,19.02,0,26.61,10.19,27.65,20.68h-15.59c-.83-4.47-3.22-9.25-12.47-9.25-6.34,0-10.08,2.6-10.08,7.69s3.01,7.07,14.65,9.67c20.79,4.99,25.36,12.68,25.36,22.86,0,12.99-9.87,22.04-28.79,22.04s-27.85-8.94-29.52-22.04h15.59Z"/>
  </g>
</svg>