<?xml version="1.0" encoding="UTF-8"?><svg id="a" xmlns="http://www.w3.org/2000/svg" width="512" height="419" viewBox="0 0 512 419"><path d="M2.01,97.46c9.09,13.48,23.22,19.82,37.53,26.61,0,3.2,0,6.15,0,9.1,0,52.17-.07,104.34,.09,156.51,.02,7.66,.51,15.44,1.89,22.96,5.03,27.43,20.5,46.08,47.14,55.49,36.56,12.92,74.16,15.7,112.43,12.42,23.59-2.03,46.72-6.37,68.95-14.9,28.81-11.05,42.78-32.46,44.49-62.68,.1-1.73,.27-3.46,.44-5.19,.02-.22,.26-.41,.86-1.32h36.44c.55,16.97-.95,33.37-9.63,48.6-19.16,33.63-47.9,54.82-85.11,63.91-55.53,13.56-111.25,13.59-166.58-1.4-23.38-6.33-44.23-17.71-60.84-35.86C10.11,349.87,3.31,322.89,.85,294.47c-1.01-11.6-.78-23.33-.8-35C-.03,208.3,.01,157.12,0,105.95c0-2.63,0-5.26,0-7.88,.67-.2,1.33-.4,2-.6Z" fill="#faf5ec"/><path d="M325.38,4.7c-6.62,9.23-12.2,17.67-18.61,25.43-1.51,1.84-5.8,1.94-8.8,1.91-54.65-.47-109.3-1.36-163.95-1.5-20.88-.05-41.73,1.89-61.9,8.05-5.45,1.66-10.9,3.54-16.04,5.96-8.41,3.96-12.74,10.62-12.21,20.27,.5,9.06,5.84,13.98,13.72,16.61,20.6,6.89,41.59,11.47,63.52,11.37,57.66-.26,115.31-.23,172.97-.31,3.17,0,6.34,0,10.08,0v30.66c-1.79,.33-3.41,.89-5.04,.88-65.36-.18-130.72-.01-196.07-.92-16.52-.23-33.13-3.18-49.44-6.24-14.78-2.77-28.72-8.6-39.11-20.17C-3.99,76.13-1.71,45.72,19.36,27.57c10.44-9,22.84-13.83,36.03-17.04C88.95,2.39,123.18-.34,157.49,.03c54.4,.6,108.78,2.6,163.17,4.03,.98,.03,1.95,.26,4.71,.64Z" fill="#faf5ec"/><path d="M315.46,92.49c2.88,0,5.31,0,7.75,0,36,0,72.02-.41,108.01,.26,12,.23,24.45,1.72,35.82,5.34,23.63,7.53,38,24.49,42.88,48.99,3.52,17.67,2.97,35.1-4.51,51.82-11.85,26.51-32.93,39.95-61.42,40.96-27.03,.96-54.12,.5-81.18,.66-2.94,.02-5.88,0-9.7,0v44.24h-37.64V92.49Zm37.62,118.2c2.19,.23,3.62,.52,5.06,.52,23.07,.02,46.15,.26,69.22-.16,6.85-.12,13.87-1.44,20.46-3.38,18.09-5.33,26.44-16.31,27.75-35.18,2.22-32.01-12.49-48.16-44.28-48.36-23.57-.15-47.14-.07-70.71-.06-2.4,0-4.8,.3-7.5,.48v86.14Z" fill="#faf5ec"/><path d="M148.01,165.86h19.04c.16,3.21,.43,6.11,.43,9,.03,27.59-.01,55.17,.03,82.76,0,3.22,.1,6.48,.63,9.64,.87,5.22,4.46,7.51,9.53,7.61,5.05,.1,8.83-1.92,9.82-7.18,.64-3.39,.84-6.9,.85-10.36,.06-27.34,.02-54.67,.01-82.01,0-2.91,0-5.83,0-9.3h18.14c.2,2.51,.52,4.66,.53,6.82,.04,29.82,.15,59.64,0,89.47-.13,23.93-17.17,36.45-40.1,29.8-8.8-2.55-14.82-8.05-17.36-16.85-1.16-4.01-1.97-8.28-1.99-12.44-.17-30.57-.1-61.13-.07-91.7,0-1.45,.28-2.91,.52-5.25Z" fill="#faf5ec"/><path d="M137.25,207.65h-19.35c0-5.23,.25-9.92-.06-14.56-.5-7.62-3.98-11.17-10.3-11.07-6.06,.09-9.89,3.46-9.99,10.59-.32,23.84-.35,47.69-.08,71.53,.08,7.51,4.08,10.93,10.56,10.77,6.17-.15,9.27-3.42,9.86-10.69,.26-3.21,.17-6.45,.2-9.68,.03-2.91,0-5.81,0-9.21h19.33c-.64,9.72-.25,19.21-2.09,28.24-2.74,13.43-12.95,19.84-28.5,19.78-14.86-.06-24.59-6.82-27.94-19.77-.92-3.57-1.39-7.35-1.41-11.04-.13-22.61-.22-45.21-.03-67.82,.19-22.01,13.51-33.46,35.23-30.68,12.8,1.64,21.07,8.85,23.25,21.58,1.2,6.99,.9,14.23,1.31,22.05Z" fill="#faf5ec"/><path d="M220.84,165.96c12.45,0,24.36-.81,36.12,.23,11.71,1.03,19.84,8.98,21.02,20.81,1.17,11.76,1.29,23.83,.06,35.58-1.38,13.26-10.99,20.91-24.4,21.67-4.13,.23-8.29,.04-13.29,.04v46.7h-19.5v-125.03Zm19.84,59.36c14.38,2.96,18.45-.19,18.56-13.89,.04-4.46,.07-8.93,0-13.39-.21-13.41-5.08-16.87-18.56-13.08v40.37Z" fill="#faf5ec"/></svg>