<?xml version="1.0" standalone="no"?>
<!DOCTYPE svg PUBLIC "-//W3C//DTD SVG 20010904//EN"
 "http://www.w3.org/TR/2001/REC-SVG-20010904/DTD/svg10.dtd">
<svg version="1.0" xmlns="http://www.w3.org/2000/svg"
 width="2134.000000pt" height="2134.000000pt" viewBox="0 0 2134.000000 2134.000000"
 preserveAspectRatio="xMidYMid meet">
<metadata>
Created by potrace 1.14, written by Peter Selinger 2001-2017
</metadata>
<g transform="translate(0.000000,2134.000000) scale(0.100000,-0.100000)"
fill="#000000" stroke="none">
<path d="M5797 19394 c-1 -1 -92 -5 -202 -8 -110 -4 -229 -9 -265 -11 -36 -2
-121 -6 -190 -10 -69 -4 -145 -8 -170 -10 -25 -2 -88 -6 -140 -10 -52 -4 -111
-8 -130 -10 -19 -2 -71 -6 -115 -9 -44 -4 -96 -9 -115 -11 -19 -2 -62 -7 -95
-10 -90 -8 -156 -15 -195 -20 -19 -3 -62 -7 -95 -10 -33 -3 -67 -8 -75 -10 -8
-2 -44 -7 -80 -10 -36 -4 -72 -9 -81 -10 -9 -2 -40 -6 -70 -10 -30 -3 -65 -8
-79 -10 -33 -6 -75 -12 -130 -20 -69 -9 -256 -40 -315 -51 -17 -3 -198 -36
-270 -48 -11 -2 -67 -14 -125 -26 -58 -12 -114 -24 -125 -25 -26 -4 -146 -31
-254 -56 -47 -11 -93 -22 -101 -24 -8 -2 -37 -9 -65 -15 -27 -6 -59 -13 -70
-16 -45 -8 -307 -87 -410 -123 -566 -198 -1006 -487 -1306 -859 -238 -294
-402 -688 -437 -1047 -13 -140 -6 -418 13 -515 3 -14 10 -51 15 -82 49 -266
183 -563 366 -809 69 -92 266 -301 349 -370 107 -88 294 -217 380 -261 17 -9
64 -33 105 -55 104 -55 273 -124 415 -171 142 -47 182 -58 310 -88 98 -22 106
-24 140 -29 17 -3 37 -8 45 -10 8 -2 35 -7 60 -10 24 -4 47 -8 50 -10 3 -2 26
-6 50 -10 25 -4 74 -13 110 -20 36 -7 85 -16 110 -20 25 -3 52 -8 60 -10 8 -2
35 -7 60 -10 25 -3 61 -10 80 -15 19 -5 60 -12 90 -15 30 -4 62 -9 70 -10 8
-1 35 -6 60 -10 25 -4 52 -9 61 -10 9 -2 40 -6 69 -10 29 -4 62 -9 74 -11 12
-2 39 -6 61 -9 22 -3 51 -7 65 -9 14 -2 56 -7 93 -11 37 -3 77 -8 88 -10 10
-2 55 -7 98 -10 44 -3 88 -7 98 -9 10 -2 63 -7 118 -10 55 -4 125 -9 155 -11
281 -23 3646 -44 7090 -45 1364 -1 1438 0 1505 18 l70 18 0 633 c0 406 -3 635
-10 639 -5 3 -1036 5 -2290 3 -5046 -6 -5674 -6 -5775 2 -166 12 -233 18 -260
22 -14 2 -52 7 -85 10 -33 3 -71 7 -85 9 -31 5 -102 15 -154 21 -22 3 -51 7
-65 10 -14 2 -42 7 -61 10 -421 69 -900 188 -1373 342 -192 61 -288 103 -373
159 -75 50 -171 148 -212 217 -35 59 -81 180 -88 231 -2 17 -6 42 -9 56 -7 31
-6 199 0 260 7 63 39 176 67 235 97 207 264 346 568 470 63 26 129 53 145 60
30 13 326 113 355 121 8 2 69 19 135 39 112 33 378 101 435 111 14 2 55 11 92
19 36 8 83 17 105 20 21 4 45 8 53 10 21 6 184 34 233 41 43 5 82 11 127 19
14 2 52 7 85 10 33 3 67 7 75 10 8 2 51 7 94 10 43 4 86 8 95 10 9 1 61 6 115
10 55 4 118 9 140 11 51 4 210 12 381 19 212 9 1575 4 2965 -10 327 -3 764 -8
970 -10 356 -4 945 -10 1745 -20 198 -2 677 -6 1065 -9 747 -5 787 -3 863 42
18 10 76 74 130 142 103 130 133 172 321 435 323 451 363 510 352 516 -11 6
-100 19 -166 25 -19 1 -141 5 -270 8 -129 4 -302 9 -385 11 -139 5 -224 7
-705 20 -96 3 -245 7 -330 10 -145 4 -264 8 -680 20 -91 3 -248 7 -350 10
-102 3 -259 7 -350 10 -91 3 -255 8 -365 11 -110 3 -265 7 -345 9 -138 4 -423
11 -795 20 -402 10 -897 21 -1460 31 -309 6 -1543 12 -1548 8z"/>
<path d="M13163 15540 c-20 -5 -20 -38 -20 -4007 l0 -4003 786 0 786 0 0 916
c0 542 4 918 9 922 5 3 669 6 1475 8 1828 3 2299 12 2626 49 55 7 203 31 240
39 6 1 37 8 70 15 584 123 1111 444 1482 901 247 304 455 696 577 1085 25 79
71 261 80 320 28 164 36 218 41 270 3 33 8 85 12 115 12 116 4 563 -12 648 -1
9 -6 49 -9 87 -4 39 -9 77 -11 85 -2 8 -6 35 -9 60 -3 25 -8 56 -11 70 -3 14
-10 54 -16 90 -6 36 -15 79 -19 95 -5 17 -11 41 -14 55 -50 281 -218 686 -390
944 -148 221 -298 384 -527 571 -117 96 -368 243 -559 328 -142 63 -403 148
-560 182 -8 2 -53 13 -100 24 -47 11 -98 22 -115 24 -16 3 -84 14 -150 26 -66
11 -147 23 -180 26 -33 4 -71 8 -85 10 -14 2 -56 7 -95 10 -38 3 -88 8 -110
10 -68 7 -301 17 -525 22 -293 7 -4643 10 -4667 3z m5020 -1324 c95 -8 174
-17 194 -20 10 -2 41 -7 68 -10 68 -9 191 -35 221 -46 13 -5 24 -8 24 -5 0 12
248 -83 345 -132 190 -96 396 -276 504 -438 114 -173 197 -385 241 -615 6 -30
12 -64 14 -75 5 -26 15 -122 22 -205 10 -135 4 -444 -11 -562 -3 -21 -8 -57
-11 -80 -30 -231 -108 -466 -209 -633 -82 -136 -212 -280 -330 -365 -208 -152
-507 -277 -825 -345 -8 -2 -35 -8 -60 -14 -25 -5 -61 -13 -80 -16 -19 -3 -60
-10 -90 -15 -59 -10 -134 -20 -190 -26 -123 -12 -687 -18 -1815 -18 -1169 0
-1392 3 -1462 21 l-22 5 0 1789 c1 1645 3 1789 18 1793 9 3 54 8 100 11 47 3
86 6 87 8 6 5 3207 -1 3267 -7z"/>
<path d="M22 15320 l-23 -10 4 -3932 c3 -2163 7 -3955 10 -3983 3 -27 8 -90
11 -140 6 -92 8 -111 26 -295 15 -142 20 -190 25 -225 2 -16 7 -52 10 -80 4
-27 8 -57 10 -65 3 -8 7 -37 10 -65 3 -27 7 -57 9 -65 1 -8 6 -37 10 -65 4
-27 12 -66 16 -85 5 -19 11 -51 14 -70 32 -213 135 -598 233 -875 90 -255 242
-579 369 -788 32 -54 64 -105 69 -115 49 -84 221 -316 328 -442 109 -128 387
-406 522 -522 404 -345 846 -613 1380 -838 11 -4 36 -15 55 -23 144 -60 556
-197 700 -232 8 -2 51 -13 96 -24 45 -12 90 -23 100 -25 11 -2 39 -9 64 -16
25 -7 53 -14 63 -16 10 -2 27 -6 37 -9 10 -3 27 -7 37 -10 10 -2 47 -10 83
-19 135 -32 196 -45 230 -51 19 -3 51 -10 70 -15 19 -5 112 -23 205 -41 94
-17 179 -33 190 -35 26 -6 248 -42 300 -49 22 -3 65 -10 95 -15 30 -5 75 -12
100 -15 25 -3 56 -8 70 -10 14 -2 52 -7 85 -10 33 -3 67 -8 75 -10 8 -2 46 -6
83 -10 37 -3 76 -8 85 -10 9 -1 53 -6 97 -9 44 -4 91 -9 105 -11 14 -2 66 -6
115 -10 50 -3 106 -8 125 -10 361 -37 1296 -48 1730 -21 25 2 97 7 161 10 64
4 136 9 160 11 24 2 78 7 119 10 41 3 95 8 120 10 66 8 116 13 190 19 36 4 76
8 90 11 14 2 54 7 90 11 36 3 72 7 80 9 8 1 42 6 75 9 33 4 71 9 85 11 14 3
43 7 65 10 22 2 49 6 60 9 11 2 43 7 70 10 69 10 86 13 195 31 52 9 109 18
125 21 17 2 55 9 85 15 30 6 64 12 75 14 32 5 83 14 185 35 52 11 109 21 125
24 123 21 618 140 780 187 205 60 515 168 631 220 22 10 65 28 95 39 70 28
393 187 484 239 39 22 88 50 110 62 22 12 66 39 98 60 32 22 61 39 64 39 9 0
294 200 383 269 354 275 671 594 978 986 5 6 44 60 88 120 238 327 434 665
533 919 39 100 106 304 115 351 2 11 11 47 19 80 9 33 18 77 21 97 3 21 10 57
15 80 5 24 12 68 16 98 3 30 8 62 10 70 24 90 42 520 36 845 l-1 50 -759 0
-759 0 -21 -25 c-11 -14 -21 -38 -22 -55 0 -16 -2 -41 -4 -55 -2 -14 -6 -74
-10 -135 -3 -60 -8 -121 -10 -135 -2 -14 -6 -56 -10 -95 -3 -38 -10 -95 -15
-125 -5 -30 -12 -71 -15 -90 -43 -276 -145 -598 -266 -843 -297 -601 -800
-1035 -1530 -1321 -262 -103 -752 -259 -974 -311 -5 -2 -39 -11 -75 -20 -36
-9 -76 -19 -89 -21 -12 -3 -90 -20 -172 -39 -82 -19 -164 -37 -182 -40 -17 -3
-52 -9 -77 -15 -25 -5 -83 -16 -130 -24 -47 -8 -98 -18 -115 -21 -49 -9 -206
-34 -255 -40 -25 -3 -52 -8 -60 -10 -8 -2 -42 -6 -75 -10 -33 -3 -71 -8 -85
-10 -56 -9 -189 -25 -250 -30 -36 -3 -76 -8 -90 -10 -14 -2 -59 -7 -100 -10
-41 -3 -91 -8 -110 -10 -101 -12 -265 -23 -585 -40 -246 -14 -825 -19 -1055
-10 -159 6 -342 15 -400 20 -30 2 -93 7 -140 10 -47 4 -101 8 -120 11 -19 2
-64 6 -100 10 -36 3 -76 7 -90 9 -14 2 -50 6 -80 10 -30 3 -71 8 -90 10 -19 3
-57 7 -85 10 -27 3 -57 8 -65 10 -8 3 -40 7 -70 10 -30 3 -62 7 -70 10 -8 2
-35 7 -60 10 -153 22 -448 79 -675 132 -60 14 -118 27 -127 28 -117 23 -766
215 -863 255 -11 5 -54 21 -95 36 -705 255 -1241 695 -1567 1284 -173 314
-290 658 -357 1050 -14 80 -28 172 -32 205 -3 33 -8 69 -10 80 -2 11 -7 58
-10 105 -3 47 -7 103 -9 125 -12 108 -16 884 -17 3960 l-1 3341 -306 151
c-317 156 -468 240 -631 351 -223 152 -415 329 -552 509 -73 96 -85 103 -136
83z"/>
<path d="M4270 12573 c-459 -47 -790 -295 -946 -709 -28 -76 -62 -200 -70
-263 -3 -25 -8 -55 -10 -66 -3 -11 -8 -65 -12 -120 -9 -126 -8 -2934 1 -3075
22 -342 130 -637 300 -818 84 -90 184 -166 282 -214 55 -28 179 -75 216 -84
158 -37 303 -52 464 -49 173 3 232 10 365 39 315 71 538 231 679 487 29 53 85
206 94 259 36 193 44 244 52 339 13 154 20 298 30 596 3 88 8 186 10 218 3 31
1 58 -3 58 -4 1 -184 2 -401 3 -256 1 -395 -2 -397 -9 -1 -5 -5 -190 -8 -410
-2 -220 -7 -416 -11 -435 -24 -130 -65 -219 -130 -279 -80 -74 -171 -101 -318
-96 -190 7 -315 97 -368 266 -28 90 -31 226 -31 1519 0 1112 6 1685 18 1750
37 205 167 315 385 327 80 5 108 2 166 -15 120 -37 199 -114 241 -236 41 -117
46 -179 45 -518 0 -257 1 -288 16 -292 9 -2 190 -4 403 -4 l387 1 -5 151 c-17
600 -26 704 -80 906 -51 187 -136 334 -268 465 -153 150 -381 257 -621 291
-27 3 -59 9 -70 11 -25 6 -358 11 -405 6z"/>
<path d="M9877 12493 c-2 -1 -149 -4 -327 -7 -179 -3 -331 -5 -337 -6 -10 0
-13 -528 -13 -2605 l0 -2605 408 0 407 0 0 970 c0 534 2 970 5 971 3 1 138 2
300 3 162 2 315 6 340 10 25 4 59 9 75 12 337 55 613 247 748 520 66 132 97
259 112 461 3 40 7 91 10 115 8 91 17 331 17 494 1 157 -10 498 -17 533 -1 9
-6 57 -9 106 -4 50 -9 113 -12 140 -37 340 -216 618 -489 757 -205 105 -380
129 -943 132 -151 1 -274 0 -275 -1z m643 -762 c168 -48 255 -200 276 -486 8
-115 8 -661 0 -783 -21 -301 -110 -446 -298 -483 -50 -10 -220 -13 -263 -5
-11 2 -40 7 -65 10 -25 4 -66 12 -92 17 l-48 11 0 839 0 838 38 10 c48 12 180
39 212 44 55 7 197 0 240 -12z"/>
<path d="M6165 12466 c-3 -11 -9 -55 -13 -96 -10 -86 -7 -4027 2 -4080 4 -19
14 -78 22 -130 9 -52 20 -108 24 -125 5 -16 23 -75 39 -131 81 -271 254 -475
505 -598 81 -39 214 -89 271 -100 11 -3 54 -12 95 -21 183 -40 433 -42 617 -6
410 81 739 414 848 859 55 221 54 163 51 2317 -2 1095 -5 2001 -8 2015 -3 14
-6 44 -7 68 l-1 42 -380 0 c-355 0 -380 -1 -380 -17 -1 -10 -2 -913 -4 -2008
-2 -1094 -6 -2015 -9 -2045 -27 -223 -56 -301 -140 -375 -128 -112 -407 -120
-548 -17 -81 60 -118 128 -145 263 -15 75 -17 203 -20 1169 -7 2113 -12 2945
-17 2975 -3 17 -5 38 -6 47 -1 15 -34 16 -396 16 -394 -1 -395 -1 -400 -22z"/>
</g>
</svg>
